<svg width="344" height="333" viewBox="0 0 344 333" fill="none" xmlns="http://www.w3.org/2000/svg">
<path fill-rule="evenodd" clip-rule="evenodd" d="M52.8076 35.4512C60.3976 18.6538 73.0016 8.25317 91.4476 5.35388L143.428 72.8198L104.88 102.779L52.8076 35.4512Z" fill="#DCA684"/>
<path fill-rule="evenodd" clip-rule="evenodd" d="M106.628 120.681C80.4996 89.4331 141.91 56.1604 151.478 68.5399L173.926 97.4407C176.594 100.892 175.996 105.862 172.546 108.532L131.79 140.148C128.34 142.817 123.372 142.219 120.704 138.767L106.628 120.681Z" fill="#DCA684"/>
<path fill-rule="evenodd" clip-rule="evenodd" d="M159.252 104.344C156.906 101.352 157.458 97.0265 160.448 94.6795L162.058 93.3909C165.048 91.0439 169.372 91.5961 171.718 94.5875L209.3 142.955C211.646 145.946 211.094 150.272 208.104 152.619L206.448 153.908C203.458 156.255 199.134 155.703 196.788 152.711L159.252 104.344Z" fill="#DCA684"/>
<path fill-rule="evenodd" clip-rule="evenodd" d="M148.534 118.84C146.188 115.849 146.74 111.523 149.73 109.176L151.34 107.887C154.33 105.54 158.654 106.093 161 109.084L198.582 157.451C200.928 160.443 200.376 164.769 197.386 167.116L195.776 168.404C192.786 170.751 188.462 170.199 186.116 167.208L148.534 118.84Z" fill="#DCA684"/>
<path fill-rule="evenodd" clip-rule="evenodd" d="M130.226 123.028C127.88 120.037 128.432 115.711 131.422 113.364L133.032 112.075C136.022 109.728 140.346 110.28 142.692 113.272L180.274 161.639C182.62 164.63 182.068 168.956 179.078 171.303L177.422 172.592C174.432 174.939 170.108 174.387 167.762 171.395L130.226 123.028Z" fill="#DCA684"/>
<path fill-rule="evenodd" clip-rule="evenodd" d="M168.498 169.049C166.52 166.471 168.498 164.769 171.074 162.744C173.65 160.765 175.812 159.246 177.836 161.777C179.814 164.354 179.354 168.082 176.778 170.061C174.202 172.086 170.522 171.626 168.498 169.049Z" fill="#F5DECD"/>
<path fill-rule="evenodd" clip-rule="evenodd" d="M110.078 125.283C107.732 122.292 108.284 117.966 111.274 115.619L112.884 114.33C115.874 111.983 120.198 112.535 122.544 115.527L160.126 163.894C162.472 166.885 161.92 171.211 158.93 173.558L157.32 174.847C154.33 177.194 150.006 176.642 147.66 173.65L110.078 125.283Z" fill="#DCA684"/>
<path fill-rule="evenodd" clip-rule="evenodd" d="M148.35 171.257C146.372 168.68 148.35 166.978 150.926 164.953C153.502 162.974 155.664 161.455 157.688 164.032C159.666 166.609 159.206 170.337 156.63 172.316C154.054 174.295 150.328 173.835 148.35 171.257Z" fill="#F5DECD"/>
<path fill-rule="evenodd" clip-rule="evenodd" d="M142.738 83.0363C138.092 81.7017 135.424 76.8696 136.758 72.2215L136.896 71.8073C138.23 67.1593 143.06 64.4901 147.706 65.8247L193.246 77.882C197.892 79.2166 200.56 84.0488 199.226 88.6968L199.088 89.111C197.754 93.7591 192.924 96.4283 188.278 95.0937L142.738 83.0363Z" fill="#DCA684"/>
<path fill-rule="evenodd" clip-rule="evenodd" d="M196.65 82.9443C196.926 81.8858 196.926 80.8734 196.742 79.8609C195.776 78.9405 194.58 78.2502 193.2 77.836L186.484 76.0413C185.932 77.1457 185.564 78.5724 185.15 80.091C184.138 84.0948 183.494 87.4083 187.496 88.4207C191.59 89.4332 195.684 86.9941 196.65 82.9443Z" fill="#FAEDE4"/>
<path fill-rule="evenodd" clip-rule="evenodd" d="M196.65 82.9443C196.926 81.8859 196.926 80.8734 196.742 79.861C195.776 78.9405 194.58 78.2502 193.2 77.8361L188.14 76.4554C187.634 77.5139 187.312 78.8485 186.944 80.2751C185.932 84.2789 185.288 87.5924 189.29 88.6048C189.29 88.6048 189.29 88.6048 189.336 88.6048C192.74 88.6509 195.822 86.3959 196.65 82.9443Z" fill="#F6E5D6"/>
<path fill-rule="evenodd" clip-rule="evenodd" d="M106.582 120.635C106.582 120.635 106.628 120.681 106.582 120.635C106.628 120.681 106.582 120.635 106.582 120.635ZM94.0696 88.9269L102.948 100.34L94.0696 88.9269Z" fill="#F4F4F4"/>
<path fill-rule="evenodd" clip-rule="evenodd" d="M156.216 175.537C155.066 176.136 153.824 176.366 152.582 176.274C153.824 176.366 155.066 176.136 156.216 175.537ZM176.364 173.328C175.214 173.927 173.972 174.157 172.73 174.065C173.972 174.157 175.214 173.927 176.364 173.328ZM165.968 169.094L167.808 171.442L165.968 169.094Z" fill="#B0DCE3"/>
<path fill-rule="evenodd" clip-rule="evenodd" d="M157.228 174.939C156.906 175.169 156.584 175.399 156.216 175.583C156.538 175.399 156.906 175.169 157.228 174.939ZM157.32 174.847C157.274 174.847 157.274 174.893 157.32 174.847C157.274 174.893 157.274 174.847 157.32 174.847ZM177.422 172.684C177.1 172.96 176.732 173.144 176.364 173.328C176.732 173.144 177.1 172.914 177.422 172.684ZM139.104 134.487L165.968 169.094L139.104 134.487L138.782 134.717L139.104 134.487Z" fill="#A7D0D4"/>
<path fill-rule="evenodd" clip-rule="evenodd" d="M197.524 150.364C195.546 147.787 197.524 146.084 200.1 144.059C202.676 142.081 204.838 140.562 206.862 143.139C208.84 145.716 208.38 149.444 205.804 151.423C203.228 153.402 199.502 152.941 197.524 150.364Z" fill="#FAEDE4"/>
<path fill-rule="evenodd" clip-rule="evenodd" d="M186.806 164.815C184.828 162.237 186.806 160.535 189.382 158.51C191.958 156.531 194.12 155.012 196.144 157.589C198.122 160.166 197.662 163.894 195.086 165.873C192.51 167.852 188.83 167.392 186.806 164.815Z" fill="#FAEDE4"/>
<path fill-rule="evenodd" clip-rule="evenodd" d="M175.674 160.443C176.41 160.489 177.146 160.903 177.836 161.777C179.814 164.354 179.354 168.082 176.778 170.061C175.582 170.981 174.156 171.395 172.73 171.303C171.12 171.165 169.556 170.429 168.498 169.048C166.52 166.471 168.498 164.769 171.074 162.744C172.776 161.455 174.248 160.351 175.674 160.443Z" fill="#FAEDE4"/>
<path fill-rule="evenodd" clip-rule="evenodd" d="M155.48 162.652C156.216 162.698 156.952 163.112 157.642 163.986C159.62 166.563 159.16 170.291 156.584 172.27C155.388 173.19 153.962 173.604 152.536 173.512C150.926 173.374 149.362 172.638 148.304 171.257C146.326 168.68 148.304 166.978 150.88 164.953C152.582 163.664 154.1 162.56 155.48 162.652Z" fill="#FAEDE4"/>
<path fill-rule="evenodd" clip-rule="evenodd" d="M197.983 150.916C196.649 148.615 198.535 147.005 200.927 145.164C203.319 143.323 205.343 141.896 207.229 143.691C208.747 146.222 208.195 149.536 205.803 151.377C203.411 153.263 200.053 152.987 197.983 150.916Z" fill="#F6E5D6"/>
<path fill-rule="evenodd" clip-rule="evenodd" d="M187.312 165.367C185.978 163.066 187.864 161.455 190.256 159.614C192.648 157.773 194.672 156.347 196.558 158.142C198.076 160.673 197.524 163.986 195.132 165.827C192.694 167.714 189.382 167.484 187.312 165.367Z" fill="#F6E5D6"/>
<path fill-rule="evenodd" clip-rule="evenodd" d="M176.502 161.547C177.1 161.593 177.652 161.823 178.204 162.376C179.722 164.907 179.17 168.22 176.778 170.107C175.582 171.027 174.156 171.442 172.73 171.35C171.35 171.257 170.016 170.659 168.958 169.647C167.624 167.346 169.51 165.735 171.902 163.894C173.604 162.514 175.122 161.455 176.502 161.547Z" fill="#F6E5D6"/>
<path fill-rule="evenodd" clip-rule="evenodd" d="M156.354 163.756C156.952 163.802 157.504 164.032 158.056 164.584C159.574 167.116 159.022 170.429 156.63 172.316C155.434 173.236 154.008 173.65 152.582 173.558C151.202 173.466 149.868 172.868 148.81 171.856C147.476 169.555 149.362 167.944 151.754 166.103C153.456 164.769 154.974 163.664 156.354 163.756Z" fill="#F6E5D6"/>
<path fill-rule="evenodd" clip-rule="evenodd" d="M117.76 73.9243L118.174 74.4305C118.312 74.6146 118.312 74.8907 118.128 75.0288L115.184 77.4679C115 77.6059 114.724 77.6059 114.586 77.4219L114.172 76.9156C114.034 76.7316 114.034 76.4554 114.218 76.3174L117.162 73.8783C117.346 73.6942 117.622 73.7402 117.76 73.9243Z" fill="#C8C8C9"/>
<path fill-rule="evenodd" clip-rule="evenodd" d="M82.9375 74.6146L120.612 43.4587L129.076 54.3656L91.4015 85.5214L82.9375 74.6146Z" fill="#2A2F33"/>
<path fill-rule="evenodd" clip-rule="evenodd" d="M82.9375 74.6146L118.036 45.5757L126.822 56.2064L91.4015 85.5214L82.9375 74.6146Z" fill="#2F373D"/>
<path fill-rule="evenodd" clip-rule="evenodd" d="M116.011 75.489C122.083 70.4728 122.957 61.4528 117.943 55.3781C112.929 49.3034 103.913 48.475 97.8415 53.4912C91.7695 58.5075 90.8955 67.5275 95.9095 73.6022C100.924 79.6768 109.939 80.5052 116.011 75.489Z" fill="#0E0E0E"/>
<path fill-rule="evenodd" clip-rule="evenodd" d="M120.98 62.005C120.566 59.658 119.554 57.357 117.944 55.3781C112.93 49.3034 103.914 48.475 97.8416 53.4912C95.6336 55.3321 94.0696 57.7251 93.2876 60.2562L120.98 62.005Z" fill="#212121"/>
<path fill-rule="evenodd" clip-rule="evenodd" d="M121.761 62.2351C122.037 61.2687 122.773 59.796 124.521 57.8171L123.602 56.7126L121.025 58.8756C120.427 57.1728 119.554 55.5621 118.358 54.0895C117.161 52.6168 115.735 51.4663 114.217 50.5919L116.794 48.475L115.874 47.3705C113.666 48.7051 112.102 49.1653 111.09 49.2573C106.306 47.7847 100.877 48.6591 96.7375 52.1106C92.6435 55.4701 90.7575 60.5323 91.2175 65.4105C90.9875 66.3769 90.2975 67.9416 88.3655 70.1046L89.2855 71.2091L91.9995 69.0001C92.5975 70.7028 93.4715 72.3135 94.6675 73.7402C95.8635 75.2128 97.2895 76.3633 98.8535 77.2837L96.1395 79.5387L97.0595 80.6432C99.6355 79.0785 101.337 78.7564 102.303 78.7564C112.653 81.5636 122.866 72.9578 121.761 62.2351ZM96.3235 72.3135C91.6775 66.6991 92.5055 58.3694 98.1175 53.7213C103.729 49.0732 112.055 49.8556 116.701 55.4701C121.347 61.0846 120.52 69.4143 114.907 74.0623C109.295 78.6644 100.969 77.882 96.3235 72.3135Z" fill="#E3E3E3"/>
<path fill-rule="evenodd" clip-rule="evenodd" d="M120.663 58.4144L114.567 51.0371L117.155 48.8968L123.251 56.2741L120.663 58.4144Z" fill="#E3E3E3"/>
<path fill-rule="evenodd" clip-rule="evenodd" d="M95.7887 78.9874L89.6929 71.6091L92.2813 69.4688L98.377 76.847L95.7887 78.9874Z" fill="#E3E3E3"/>
<path fill-rule="evenodd" clip-rule="evenodd" d="M113.482 66.3769L113.344 66.7451L115.092 67.3894L115.23 67.0212L113.482 66.3769ZM108.928 56.9428L109.296 57.0808L109.94 55.332L109.572 55.194L108.928 56.9428ZM113.758 62.5572L113.804 62.9254L115.644 62.6033L115.598 62.2351L113.758 62.5572ZM112.102 59.1057L112.332 59.3818L113.758 58.1853L113.528 57.9092L112.102 59.1057ZM105.064 56.6206L105.432 56.5746L105.11 54.7338L104.742 54.7798L105.064 56.6206ZM101.614 58.3234L101.89 58.0933L100.694 56.6666L100.418 56.8507L101.614 58.3234ZM99.4517 61.4988L99.5897 61.1306L97.8417 60.4863L97.7037 60.8545L99.4517 61.4988ZM99.1757 65.3185L99.1297 64.9503L97.2897 65.2724L97.3357 65.6406L99.1757 65.3185ZM100.832 68.77L100.602 68.4939L99.1757 69.6904L99.4057 69.9665L100.832 68.77ZM104.006 70.979L103.638 70.8409L102.994 72.5897L103.362 72.7277L104.006 70.979ZM107.87 71.2551L107.502 71.3011L107.824 73.1419L108.192 73.0959L107.87 71.2551ZM111.32 69.5523L111.044 69.7824L112.24 71.2091L112.516 70.979L111.32 69.5523Z" fill="white"/>
<path fill-rule="evenodd" clip-rule="evenodd" d="M106.076 63.7998L101.154 63.4316V63.7078L106.076 64.0759C106.076 64.0299 106.076 63.8919 106.076 63.7998Z" fill="white"/>
<path fill-rule="evenodd" clip-rule="evenodd" d="M111.872 66.6531L111.964 66.423L107.226 64.168C107.318 63.8918 107.272 63.6157 107.088 63.3856C106.996 63.2476 106.858 63.2015 106.72 63.1555L106.674 59.8881H106.122L106.168 63.1555C106.076 63.2015 106.03 63.2476 105.938 63.2936C105.616 63.5697 105.57 64.0759 105.846 64.4441C106.122 64.7662 106.628 64.8123 106.996 64.5361C107.042 64.4901 107.088 64.4441 107.134 64.3981L111.872 66.6531ZM106.168 64.214L106.122 64.168C106.122 64.1219 106.122 64.1219 106.076 64.0759C106.076 63.9839 106.076 63.9379 106.122 63.8918C106.306 63.7538 106.582 63.7538 106.72 63.9379C106.858 64.1219 106.858 64.3981 106.674 64.5361C106.582 64.4441 106.306 64.3981 106.168 64.214Z" fill="white"/>
<path fill-rule="evenodd" clip-rule="evenodd" d="M256.22 91.8722C240.074 83.1744 225.262 72.2675 212.75 57.7711L229.908 57.541L257.186 83.5886L256.22 91.8722Z" fill="#FF6033"/>
<path fill-rule="evenodd" clip-rule="evenodd" d="M244 99.3333L207.799 70.7896L240.459 29.332L276.66 57.8756L244 99.3333Z" fill="#D8B091"/>
<path fill-rule="evenodd" clip-rule="evenodd" d="M191.866 76.4554C214.544 45.4377 258.934 94.1272 249.826 105.724L228.482 132.83C225.906 136.052 221.214 136.65 217.994 134.073L179.768 103.93C176.548 101.352 175.95 96.6584 178.526 93.4369L191.866 76.4554Z" fill="#F0CBB0"/>
<path fill-rule="evenodd" clip-rule="evenodd" d="M218.73 121.003C220.938 118.196 225.032 117.69 227.838 119.899L229.356 121.095C232.162 123.304 232.668 127.4 230.414 130.207L194.718 175.675C192.51 178.483 188.416 178.989 185.61 176.78L184.092 175.583C181.286 173.374 180.78 169.279 182.988 166.471L218.73 121.003Z" fill="#F0CBB0"/>
<path fill-rule="evenodd" clip-rule="evenodd" d="M203.044 114.468C205.252 111.661 209.346 111.155 212.152 113.41L213.67 114.606C216.476 116.815 216.982 120.911 214.728 123.718L179.032 169.141C176.824 171.948 172.73 172.454 169.924 170.199L168.406 169.002C165.6 166.793 165.094 162.698 167.302 159.89L203.044 114.468Z" fill="#F0CBB0"/>
<path fill-rule="evenodd" clip-rule="evenodd" d="M195.04 98.6372C197.248 95.83 201.342 95.3238 204.148 97.5328L205.666 98.7293C208.472 100.938 208.978 105.034 206.724 107.841L170.936 153.263C168.728 156.071 164.634 156.577 161.828 154.368L160.31 153.171C157.504 150.962 156.998 146.867 159.206 144.059L195.04 98.6372Z" fill="#F0CBB0"/>
<path fill-rule="evenodd" clip-rule="evenodd" d="M161.598 144.151C163.484 141.712 165.554 143.185 167.946 145.072C170.384 146.959 172.224 148.615 170.338 151.054C168.452 153.494 164.91 153.908 162.518 151.975C160.126 150.088 159.712 146.591 161.598 144.151Z" fill="#F5DECD"/>
<path fill-rule="evenodd" clip-rule="evenodd" d="M188.416 80.6893C190.624 77.8821 194.718 77.3758 197.524 79.5848L199.042 80.7814C201.848 82.9903 202.354 87.0861 200.1 89.8934L164.312 135.316C162.104 138.123 158.01 138.629 155.204 136.42L153.686 135.223C150.88 133.015 150.374 128.919 152.628 126.111L188.416 80.6893Z" fill="#F0CBB0"/>
<path d="M188.416 80.6893C190.624 77.8821 194.718 77.3758 197.524 79.5848L199.042 80.7814C201.848 82.9903 202.354 87.0861 200.1 89.8934L164.312 135.316C162.104 138.123 158.01 138.629 155.204 136.42L153.686 135.223C150.88 133.015 150.374 128.919 152.628 126.111L188.416 80.6893Z" stroke="#F0CBB0" stroke-width="0.216" stroke-miterlimit="22.9256"/>
<path fill-rule="evenodd" clip-rule="evenodd" d="M154.974 126.203C156.859 123.764 158.929 125.237 161.321 127.124C163.759 129.011 165.599 130.667 163.713 133.106C161.827 135.5 158.331 135.96 155.894 134.027C153.502 132.094 153.088 128.596 154.974 126.203Z" fill="#F5DECD"/>
<path fill-rule="evenodd" clip-rule="evenodd" d="M234.508 101.03C234.692 96.4743 238.51 92.9307 243.064 93.0688H243.478C248.032 93.2529 251.574 97.0725 251.436 101.629L250.746 146.13C250.562 150.686 246.744 154.23 242.19 154.092H241.776C237.222 153.908 233.68 150.088 233.818 145.532L234.508 101.03Z" fill="#F0CBB0"/>
<path fill-rule="evenodd" clip-rule="evenodd" d="M246.836 150.456C247.848 150.456 248.814 150.226 249.688 149.858C250.286 148.753 250.7 147.511 250.746 146.13L250.884 139.595C249.734 139.365 248.354 139.319 246.836 139.319C242.926 139.319 239.752 139.457 239.752 143.369C239.752 147.281 242.926 150.456 246.836 150.456Z" fill="#FAEDE4"/>
<path fill-rule="evenodd" clip-rule="evenodd" d="M246.836 150.456C247.848 150.456 248.814 150.226 249.688 149.858C250.286 148.753 250.7 147.511 250.746 146.13L250.838 141.206C249.734 141.022 248.446 140.976 247.066 140.976C243.156 140.976 239.982 141.114 239.982 145.026C239.982 145.026 239.982 145.026 239.982 145.072C240.718 148.155 243.478 150.456 246.836 150.456Z" fill="#F6E5D6"/>
<path fill-rule="evenodd" clip-rule="evenodd" d="M218.086 57.7711L209.668 68.4939L218.086 57.7711Z" fill="#F4F4F4"/>
<path fill-rule="evenodd" clip-rule="evenodd" d="M152.858 134.349C152.076 133.429 151.57 132.324 151.34 131.174C151.57 132.37 152.076 133.475 152.858 134.349ZM159.482 152.343C158.7 151.423 158.194 150.318 157.964 149.168C158.148 150.318 158.654 151.423 159.482 152.343ZM161 141.85L159.252 144.059L161 141.85Z" fill="#B0DCE3"/>
<path fill-rule="evenodd" clip-rule="evenodd" d="M153.64 135.131C153.364 134.901 153.088 134.625 152.858 134.349C153.088 134.625 153.364 134.901 153.64 135.131ZM153.732 135.223C153.732 135.223 153.732 135.177 153.732 135.223C153.732 135.177 153.732 135.223 153.732 135.223ZM160.31 153.171C159.988 152.941 159.712 152.665 159.482 152.343C159.712 152.619 159.988 152.895 160.31 153.171ZM186.576 109.36L161 141.85L186.576 109.36L186.3 109.13L186.576 109.36Z" fill="#A7D0D4"/>
<path fill-rule="evenodd" clip-rule="evenodd" d="M185.288 166.517C187.174 164.078 189.244 165.551 191.636 167.438C194.074 169.325 195.914 170.981 194.028 173.42C192.142 175.859 188.6 176.228 186.208 174.341C183.816 172.408 183.402 168.91 185.288 166.517Z" fill="#FAEDE4"/>
<path fill-rule="evenodd" clip-rule="evenodd" d="M169.602 159.982C171.488 157.543 173.558 159.016 175.95 160.903C178.388 162.79 180.228 164.446 178.342 166.886C176.456 169.325 172.96 169.739 170.522 167.806C168.13 165.919 167.716 162.375 169.602 159.982Z" fill="#FAEDE4"/>
<path fill-rule="evenodd" clip-rule="evenodd" d="M171.12 148.753C171.258 149.444 171.028 150.18 170.384 151.054C168.498 153.494 164.956 153.908 162.564 151.975C161.46 151.101 160.77 149.858 160.54 148.523C160.264 147.005 160.632 145.44 161.644 144.151C163.53 141.712 165.6 143.185 167.992 145.072C169.556 146.314 170.89 147.465 171.12 148.753Z" fill="#FAEDE4"/>
<path fill-rule="evenodd" clip-rule="evenodd" d="M164.496 130.805C164.634 131.496 164.404 132.232 163.76 133.106C161.874 135.5 158.378 135.96 155.94 134.027C154.836 133.153 154.146 131.91 153.916 130.575C153.64 129.057 154.008 127.492 155.02 126.203C156.906 123.764 158.976 125.237 161.368 127.124C162.932 128.366 164.266 129.471 164.496 130.805Z" fill="#FAEDE4"/>
<path fill-rule="evenodd" clip-rule="evenodd" d="M223.146 44.4712C241.178 52.0185 254.978 62.8794 267.076 77.974L256.174 91.8722C245.18 76.3173 230.828 64.8122 212.704 57.7711L223.146 44.4712Z" fill="#FF8433"/>
<path fill-rule="evenodd" clip-rule="evenodd" d="M184.919 167.07C186.713 165.321 188.599 166.701 190.853 168.45C193.107 170.199 194.855 171.764 193.613 173.881C191.635 175.86 188.461 176.09 186.253 174.295C183.999 172.592 183.494 169.463 184.919 167.07Z" fill="#F6E5D6"/>
<path fill-rule="evenodd" clip-rule="evenodd" d="M169.234 160.535C171.028 158.786 172.914 160.167 175.168 161.915C177.422 163.664 179.17 165.229 177.928 167.346C175.95 169.325 172.776 169.555 170.568 167.76C168.314 166.057 167.808 162.928 169.234 160.535Z" fill="#F6E5D6"/>
<path fill-rule="evenodd" clip-rule="evenodd" d="M170.292 149.812C170.384 150.364 170.292 150.916 169.924 151.561C167.946 153.54 164.772 153.77 162.518 151.975C161.414 151.101 160.724 149.858 160.494 148.523C160.264 147.235 160.494 145.854 161.23 144.704C163.024 142.955 164.91 144.336 167.164 146.084C168.728 147.373 170.062 148.477 170.292 149.812Z" fill="#F6E5D6"/>
<path fill-rule="evenodd" clip-rule="evenodd" d="M163.668 131.818C163.76 132.37 163.668 132.922 163.3 133.567C161.322 135.546 158.148 135.776 155.894 133.981C154.79 133.107 154.1 131.864 153.87 130.529C153.64 129.241 153.87 127.86 154.606 126.71C156.4 124.961 158.286 126.342 160.54 128.09C162.104 129.379 163.484 130.529 163.668 131.818Z" fill="#F6E5D6"/>
<path fill-rule="evenodd" clip-rule="evenodd" d="M252.218 86.5799L262.89 72.9579C263.442 73.6022 263.994 74.2465 264.592 74.8907L253.828 88.6048C253.276 87.9145 252.77 87.2242 252.218 86.5799Z" fill="#FF6033"/>
<path fill-rule="evenodd" clip-rule="evenodd" d="M246.146 79.7229L256.588 66.377C257.186 66.9752 257.784 67.5735 258.382 68.1717L247.894 81.5637C247.342 80.9654 246.744 80.3211 246.146 79.7229Z" fill="#FF6033"/>
<path fill-rule="evenodd" clip-rule="evenodd" d="M239.568 73.5561L249.918 60.3483C250.562 60.9005 251.206 61.4067 251.85 61.959L241.5 75.1668C240.81 74.6606 240.166 74.1084 239.568 73.5561Z" fill="#FF6033"/>
<path fill-rule="evenodd" clip-rule="evenodd" d="M232.392 68.1257L242.696 55.0099C243.386 55.4701 244.076 55.9763 244.766 56.4365L234.462 69.5523C233.772 69.0921 233.082 68.5859 232.392 68.1257Z" fill="#FF6033"/>
<path fill-rule="evenodd" clip-rule="evenodd" d="M224.71 63.3396L235.014 50.2238C235.75 50.6379 236.486 51.0521 237.222 51.5123L226.918 64.6281C226.182 64.1679 225.446 63.7538 224.71 63.3396Z" fill="#FF6033"/>
<path fill-rule="evenodd" clip-rule="evenodd" d="M216.476 59.2898L226.826 46.0359C227.608 46.4041 228.39 46.7722 229.172 47.1404L218.822 60.3482C218.04 59.9801 217.258 59.6579 216.476 59.2898Z" fill="#FF6033"/>
<path fill-rule="evenodd" clip-rule="evenodd" d="M278.989 74.1544C275.585 76.2253 271.63 77.5599 267.122 77.9741C255.07 62.8794 241.27 52.0186 223.192 44.4712C222.456 40.0072 222.916 35.6353 224.066 31.4014C233.956 21.6451 239.246 9.54173 248.63 0.0155029C271.216 9.08152 289.155 23.8081 303.415 42.9986C293.709 52.4788 287.913 64.3981 278.989 74.1544Z" fill="#FF6033"/>
<path fill-rule="evenodd" clip-rule="evenodd" d="M224.02 31.4014C233.91 21.6451 239.2 9.54173 248.584 0.0155029C271.17 9.08152 289.11 23.8081 303.37 42.9986C293.664 52.5248 287.868 64.3981 278.944 74.2004C267.95 58.0012 243.248 37.7062 224.02 31.4014Z" fill="#FF8433"/>
<path fill-rule="evenodd" clip-rule="evenodd" d="M276 70.1506C283.636 59.1517 291.501 47.3705 297.573 35.6353C299.597 37.9824 301.53 40.4214 303.37 42.9526C293.664 52.4788 287.867 64.3521 278.943 74.1544C278.069 72.8658 277.104 71.4852 276 70.1506Z" fill="#FF9A33"/>
<path fill-rule="evenodd" clip-rule="evenodd" d="M251.344 1.16601C244.076 11.5206 236.486 22.6576 230.276 33.8865C228.16 32.9201 226.044 32.0917 224.02 31.4014C233.91 21.6451 239.2 9.54173 248.584 0.0155029C249.55 0.383666 250.47 0.75183 251.344 1.16601Z" fill="#FF6033"/>
<path fill-rule="evenodd" clip-rule="evenodd" d="M50.1396 179.173C63.3416 192.289 77.9696 214.655 83.4896 233.339L63.0196 220.315L46.4596 186.398L50.1396 179.173Z" fill="#21676D"/>
<path fill-rule="evenodd" clip-rule="evenodd" d="M65.0436 174.525C77.1876 188.285 87.2616 203.61 93.9776 221.558L77.8316 215.805L61.2716 181.888L65.0436 174.525Z" fill="#C8C8C9"/>
<path fill-rule="evenodd" clip-rule="evenodd" d="M79.063 171.735L103.123 211.065L58.1223 238.619L34.0623 199.289L79.063 171.735Z" fill="#F9CFA9"/>
<path fill-rule="evenodd" clip-rule="evenodd" d="M120.06 211.295C88.0436 232.511 63.2955 171.442 75.8535 163.756L105.294 145.716C108.836 143.553 113.436 144.658 115.552 148.201L140.944 189.712C143.106 193.209 142.002 197.811 138.46 199.974L120.06 211.295Z" fill="#FAD9BB"/>
<path fill-rule="evenodd" clip-rule="evenodd" d="M110.262 160.167C107.18 162.053 103.224 161.087 101.338 158.004L100.326 156.347C98.4396 153.263 99.4056 149.306 102.488 147.419L151.8 117.229C154.882 115.343 158.838 116.309 160.724 119.392L161.736 121.049C163.622 124.087 162.656 128.09 159.574 129.977L110.262 160.167Z" fill="#FAD9BB"/>
<path fill-rule="evenodd" clip-rule="evenodd" d="M122.727 171.764C119.645 173.65 115.644 172.684 113.804 169.601L112.791 167.944C110.905 164.861 111.872 160.903 114.954 159.016L164.265 128.827C167.301 126.94 171.303 127.906 173.189 130.99L174.201 132.646C176.087 135.73 175.121 139.687 172.039 141.574L122.727 171.764Z" fill="#FAD9BB"/>
<path fill-rule="evenodd" clip-rule="evenodd" d="M124.752 189.343C121.67 191.23 117.714 190.264 115.828 187.181L114.816 185.524C112.93 182.486 113.896 178.483 116.978 176.596L166.29 146.406C169.372 144.52 173.328 145.486 175.214 148.569L176.226 150.226C178.112 153.309 177.146 157.267 174.064 159.154L124.752 189.343Z" fill="#FAD9BB"/>
<path fill-rule="evenodd" clip-rule="evenodd" d="M171.902 158.28C169.28 159.89 167.854 157.819 166.244 155.196C164.634 152.573 163.438 150.364 166.06 148.753C168.682 147.143 172.132 147.971 173.696 150.594C175.352 153.217 174.524 156.669 171.902 158.28Z" fill="#F5DECD"/>
<path fill-rule="evenodd" clip-rule="evenodd" d="M124.752 208.534C121.67 210.421 117.714 209.454 115.828 206.371L114.816 204.714C112.93 201.631 113.896 197.673 116.978 195.786L166.29 165.597C169.372 163.71 173.328 164.677 175.214 167.76L176.226 169.417C178.112 172.5 177.146 176.458 174.064 178.345L124.752 208.534Z" fill="#FAD9BB"/>
<path fill-rule="evenodd" clip-rule="evenodd" d="M171.856 177.424C169.234 179.035 167.808 176.964 166.198 174.341C164.588 171.718 163.392 169.509 166.014 167.898C168.636 166.287 172.086 167.116 173.65 169.739C175.306 172.408 174.478 175.813 171.856 177.424Z" fill="#F5DECD"/>
<path fill-rule="evenodd" clip-rule="evenodd" d="M88.5496 173.466C86.8016 177.7 81.9716 179.679 77.7856 177.93L77.4176 177.792C73.1856 176.044 71.2076 171.211 72.9556 167.024L89.0555 125.559C90.8035 121.325 95.6336 119.346 99.8196 121.095L100.188 121.233C104.42 122.982 106.398 127.814 104.65 132.002L88.5496 173.466Z" fill="#FAD9BB"/>
<path fill-rule="evenodd" clip-rule="evenodd" d="M94.1615 122.844C93.1955 122.476 92.2296 122.338 91.2636 122.43C90.2976 123.258 89.5156 124.317 89.0096 125.559L86.6176 131.68C87.5836 132.324 88.8716 132.83 90.2976 133.337C93.9776 134.717 96.9676 135.638 98.3476 132.002C99.6816 128.274 97.7955 124.179 94.1615 122.844Z" fill="#FAEDE4"/>
<path fill-rule="evenodd" clip-rule="evenodd" d="M94.1616 122.844C93.1956 122.476 92.2296 122.338 91.2636 122.43C90.2976 123.258 89.5156 124.317 89.0096 125.559L87.2156 130.161C88.1816 130.713 89.3776 131.22 90.7116 131.68C94.3916 133.06 97.3816 133.981 98.7616 130.345C98.7616 130.345 98.7616 130.345 98.7616 130.299C99.0836 127.124 97.2436 123.994 94.1616 122.844Z" fill="#F6E5D6"/>
<path fill-rule="evenodd" clip-rule="evenodd" d="M120.014 211.295C120.06 211.295 120.06 211.295 120.014 211.295C120.06 211.295 120.06 211.295 120.014 211.295ZM88.9636 219.717L100.602 212.584L88.9636 219.717Z" fill="#F4F4F4"/>
<path fill-rule="evenodd" clip-rule="evenodd" d="M176.732 170.475C177.146 171.626 177.238 172.822 177.054 173.973C177.238 172.822 177.146 171.626 176.732 170.475ZM176.732 151.331C177.146 152.481 177.238 153.678 177.054 154.828C177.238 153.678 177.146 152.481 176.732 151.331ZM171.672 160.673L174.064 159.2L171.672 160.673Z" fill="#B0DCE3"/>
<path fill-rule="evenodd" clip-rule="evenodd" d="M176.226 169.509C176.41 169.831 176.594 170.153 176.686 170.521C176.594 170.153 176.41 169.831 176.226 169.509ZM176.226 150.272C176.41 150.594 176.594 150.962 176.732 151.331C176.594 150.962 176.41 150.64 176.226 150.272ZM176.18 150.226C176.226 150.272 176.226 150.272 176.18 150.226C176.226 150.272 176.226 150.272 176.18 150.226ZM136.39 182.256L171.626 160.673L136.39 182.256L136.574 182.578L136.39 182.256Z" fill="#A7D0D4"/>
<path fill-rule="evenodd" clip-rule="evenodd" d="M157.412 129.103C154.79 130.713 153.364 128.643 151.754 126.019C150.144 123.396 148.948 121.187 151.57 119.577C154.192 117.966 157.642 118.794 159.206 121.417C160.862 124.04 160.034 127.492 157.412 129.103Z" fill="#FAEDE4"/>
<path fill-rule="evenodd" clip-rule="evenodd" d="M169.878 140.654C167.256 142.265 165.83 140.194 164.22 137.571C162.61 134.947 161.414 132.738 164.036 131.128C166.658 129.517 170.108 130.345 171.672 132.968C173.328 135.638 172.5 139.043 169.878 140.654Z" fill="#FAEDE4"/>
<path fill-rule="evenodd" clip-rule="evenodd" d="M164.588 150.64C164.726 149.95 165.186 149.306 166.106 148.753C168.728 147.143 172.178 147.971 173.742 150.594C174.478 151.837 174.708 153.217 174.478 154.506C174.202 156.025 173.328 157.359 171.902 158.234C169.28 159.844 167.854 157.773 166.244 155.15C165.232 153.494 164.358 151.975 164.588 150.64Z" fill="#FAEDE4"/>
<path fill-rule="evenodd" clip-rule="evenodd" d="M164.542 169.831C164.68 169.14 165.14 168.496 166.06 167.944C168.682 166.333 172.132 167.162 173.696 169.785C174.432 171.027 174.662 172.408 174.432 173.697C174.156 175.215 173.282 176.596 171.856 177.424C169.234 179.035 167.808 176.964 166.198 174.341C165.186 172.638 164.312 171.119 164.542 169.831Z" fill="#FAEDE4"/>
<path fill-rule="evenodd" clip-rule="evenodd" d="M65.0436 174.525C69.9656 192.933 79.4416 208.718 93.9776 221.558L43.6076 252.575L14.6736 205.543L65.0436 174.525Z" fill="#EAECEC"/>
<path fill-rule="evenodd" clip-rule="evenodd" d="M68.0796 184.005C73.4616 198.409 82.0176 210.973 94.0236 221.558L83.3056 228.139C70.7936 217.83 62.9276 205.957 57.2236 190.678L68.0796 184.005Z" fill="#FFFFFD"/>
<path fill-rule="evenodd" clip-rule="evenodd" d="M50.1396 179.127C55.3836 200.711 66.9296 218.52 83.4896 233.339C65.7796 240.426 51.1056 253.542 35.4656 266.428C14.3976 252.207 3.54161 232.925 0.229614 209.869C17.1116 200.388 33.9936 190.402 50.1396 179.127Z" fill="#278086"/>
<path fill-rule="evenodd" clip-rule="evenodd" d="M27.6455 260.537C42.8715 249.86 62.1455 238.447 74.8415 224.871C77.5555 227.817 80.4075 230.624 83.4895 233.339C65.7795 240.426 51.2435 253.45 35.6035 266.336L27.6455 260.537Z" fill="#2E8B93"/>
<path fill-rule="evenodd" clip-rule="evenodd" d="M51.2435 183.407C35.4195 194.406 15.5936 207.568 2.80555 222.064L0.367554 209.731C0.643554 209.592 0.873552 209.454 1.14955 209.27C1.42555 209.132 1.65555 208.994 1.93155 208.81C2.20755 208.672 2.43755 208.534 2.71355 208.35C2.98955 208.212 3.21955 208.074 3.49555 207.89C3.77155 207.752 4.00155 207.614 4.27755 207.429C4.55355 207.291 4.78355 207.153 5.05955 206.969C5.33555 206.831 5.56555 206.693 5.84155 206.509C6.11755 206.371 6.34755 206.187 6.62355 206.049C6.89955 205.911 7.12955 205.727 7.40555 205.589C7.68155 205.451 7.91155 205.267 8.18755 205.128C8.46355 204.99 8.69355 204.806 8.96955 204.668C9.24555 204.53 9.47555 204.346 9.75155 204.208C10.0276 204.07 10.2576 203.886 10.5336 203.748C10.8096 203.61 11.0396 203.426 11.3156 203.288C11.5916 203.15 11.8216 202.966 12.0976 202.827C12.3736 202.689 12.6035 202.505 12.8795 202.367C13.1555 202.229 13.3856 202.045 13.6616 201.907C13.9376 201.769 14.1676 201.585 14.4435 201.447C14.7195 201.309 14.9496 201.125 15.2256 200.987C15.5016 200.849 15.7316 200.664 16.0076 200.526C16.2836 200.388 16.5135 200.204 16.7895 200.066C17.0655 199.928 17.2955 199.744 17.5716 199.606C17.8475 199.468 18.0775 199.284 18.3535 199.146C18.6295 199.008 18.8596 198.824 19.1356 198.686C19.4116 198.548 19.6415 198.363 19.9175 198.225C20.1935 198.087 20.4235 197.903 20.6995 197.765C20.9755 197.627 21.2055 197.443 21.4816 197.305C21.7575 197.167 21.9875 196.983 22.2635 196.845C22.5395 196.707 22.7696 196.523 23.0455 196.385C23.3216 196.247 23.5515 196.062 23.8275 195.924C24.1035 195.786 24.3335 195.602 24.6095 195.464C24.8855 195.326 25.1155 195.142 25.3915 195.004C25.6675 194.866 25.8975 194.682 26.1735 194.544C26.4495 194.406 26.6795 194.222 26.9555 194.084C27.2315 193.945 27.4615 193.761 27.7375 193.623C28.0135 193.485 28.2435 193.301 28.5195 193.163C28.7955 193.025 29.0255 192.841 29.3015 192.703C29.5775 192.565 29.8075 192.381 30.0835 192.243C30.3595 192.105 30.5895 191.921 30.8655 191.736C31.1415 191.552 31.3715 191.414 31.6475 191.23C31.9235 191.046 32.1535 190.908 32.4295 190.724C32.7055 190.54 32.9355 190.402 33.2115 190.218C33.4875 190.034 33.7175 189.896 33.9935 189.712C34.2695 189.528 34.4995 189.389 34.7755 189.205C35.0515 189.021 35.2815 188.883 35.5575 188.699C35.8335 188.515 36.0635 188.377 36.3395 188.193C36.6155 188.009 36.8455 187.871 37.1215 187.687C37.3975 187.503 37.6275 187.365 37.9035 187.18C38.1795 186.996 38.4095 186.858 38.6855 186.674C38.9615 186.49 39.1915 186.352 39.4675 186.168C39.7435 185.984 39.9735 185.846 40.2495 185.662C40.5255 185.478 40.7555 185.34 41.0315 185.156C41.3075 184.971 41.5375 184.833 41.8135 184.649C42.0895 184.465 42.3195 184.327 42.5955 184.143C42.8715 183.959 43.1015 183.821 43.3775 183.637C43.6535 183.453 43.8835 183.315 44.1595 183.131C44.4355 182.947 44.6655 182.809 44.9415 182.624C45.2175 182.44 45.4475 182.302 45.7235 182.118C45.9995 181.934 46.2295 181.796 46.5055 181.612C46.7815 181.428 47.0115 181.244 47.2875 181.106C47.5635 180.922 47.7935 180.738 48.0695 180.6C48.3455 180.415 48.5755 180.231 48.8055 180.093C49.0355 179.909 49.3115 179.725 49.5415 179.587C49.7715 179.403 50.0475 179.219 50.2775 179.081C50.4615 180.6 50.8295 182.026 51.2435 183.407Z" fill="#21676D"/>
<path fill-rule="evenodd" clip-rule="evenodd" d="M42.5037 195.832C44.0217 198.317 43.2397 201.539 40.8017 203.058C38.3177 204.576 35.0977 203.794 33.5797 201.355C32.0617 198.87 32.8437 195.648 35.2817 194.13C37.7197 192.611 40.9857 193.347 42.5037 195.832Z" fill="#9E9E9F"/>
<path fill-rule="evenodd" clip-rule="evenodd" d="M40.5255 197.029C41.3995 198.409 40.9395 200.25 39.5595 201.125C38.1795 201.999 36.3395 201.539 35.4655 200.158C34.5915 198.778 35.0515 196.937 36.4315 196.062C37.8575 195.188 39.6975 195.648 40.5255 197.029Z" fill="#B6B7B8"/>
<path fill-rule="evenodd" clip-rule="evenodd" d="M40.2036 200.572C40.0196 200.756 39.7896 200.941 39.5596 201.125C38.1796 201.999 36.3396 201.539 35.4656 200.158C34.9596 199.376 34.9136 198.409 35.1896 197.581C35.3736 197.397 35.6036 197.213 35.8336 197.029C37.2136 196.154 39.0536 196.615 39.9276 197.995C40.4336 198.824 40.5256 199.744 40.2036 200.572Z" fill="#EAECEC"/>
<path fill-rule="evenodd" clip-rule="evenodd" d="M157.964 128.689C155.664 129.701 154.376 127.768 152.858 125.329C151.386 122.89 150.236 120.865 152.168 119.3C154.698 118.15 157.734 119.024 159.252 121.463C160.724 123.856 160.126 126.986 157.964 128.689Z" fill="#F6E5D6"/>
<path fill-rule="evenodd" clip-rule="evenodd" d="M170.43 140.286C168.13 141.298 166.842 139.365 165.324 136.926C163.852 134.487 162.702 132.462 164.634 130.898C167.164 129.747 170.2 130.621 171.718 133.061C173.19 135.408 172.592 138.537 170.43 140.286Z" fill="#F6E5D6"/>
<path fill-rule="evenodd" clip-rule="evenodd" d="M165.692 149.996C165.784 149.444 166.106 148.938 166.658 148.477C169.188 147.327 172.224 148.201 173.742 150.64C174.478 151.883 174.708 153.263 174.478 154.552C174.248 155.841 173.558 157.037 172.454 157.912C170.154 158.924 168.866 156.991 167.348 154.552C166.336 152.803 165.462 151.285 165.692 149.996Z" fill="#F6E5D6"/>
<path fill-rule="evenodd" clip-rule="evenodd" d="M165.692 169.141C165.784 168.588 166.106 168.082 166.658 167.622C169.188 166.471 172.224 167.346 173.742 169.785C174.478 171.027 174.708 172.408 174.478 173.697C174.248 174.985 173.558 176.182 172.454 177.056C170.154 178.068 168.866 176.136 167.348 173.697C166.29 171.948 165.416 170.429 165.692 169.141Z" fill="#F6E5D6"/>
<path fill-rule="evenodd" clip-rule="evenodd" d="M343.573 208.948C343.113 227.402 335.57 241.853 319.7 251.747L245.547 209.823L269.421 167.208L343.573 208.948Z" fill="#C6A482"/>
<path fill-rule="evenodd" clip-rule="evenodd" d="M260.82 151.423C297.022 170.015 253.46 224.549 239.798 216.956L207.874 199.1C204.056 196.983 202.676 192.151 204.838 188.331L230.046 143.323C232.162 139.503 236.992 138.123 240.81 140.286L260.82 151.423Z" fill="#C6A482"/>
<path fill-rule="evenodd" clip-rule="evenodd" d="M218.684 186.95C221.996 188.791 223.192 193.025 221.352 196.339L220.34 198.133C218.5 201.447 214.268 202.643 210.956 200.757L157.504 170.843C154.192 169.002 152.996 164.769 154.836 161.455L155.848 159.66C157.688 156.347 161.92 155.15 165.232 157.037L218.684 186.95Z" fill="#C6A482"/>
<path fill-rule="evenodd" clip-rule="evenodd" d="M222.916 169.463C226.228 171.303 227.424 175.537 225.538 178.851L224.526 180.646C222.686 183.959 218.454 185.156 215.142 183.269L161.69 153.355C158.378 151.515 157.182 147.281 159.068 143.967L160.08 142.173C161.92 138.859 166.152 137.663 169.464 139.503L222.916 169.463Z" fill="#C6A482"/>
<path fill-rule="evenodd" clip-rule="evenodd" d="M238.142 158.464C241.454 160.305 242.65 164.538 240.81 167.852L239.798 169.647C237.958 172.96 233.772 174.157 230.414 172.27L176.962 142.357C173.65 140.516 172.454 136.282 174.34 132.968L175.352 131.174C177.192 127.86 181.424 126.664 184.736 128.504L238.142 158.464Z" fill="#C6A482"/>
<path fill-rule="evenodd" clip-rule="evenodd" d="M184.966 130.99C187.818 132.6 186.622 134.947 185.058 137.801C183.448 140.654 182.068 142.909 179.216 141.298C176.364 139.687 175.352 136.098 176.962 133.245C178.572 130.437 182.16 129.425 184.966 130.99Z" fill="#F5DECD"/>
<path fill-rule="evenodd" clip-rule="evenodd" d="M255.851 148.523C259.163 150.364 260.359 154.598 258.519 157.912L257.507 159.706C255.667 163.02 251.435 164.216 248.123 162.329L194.672 132.416C191.36 130.575 190.164 126.342 192.05 123.028L193.062 121.233C194.902 117.92 199.134 116.723 202.446 118.61L255.851 148.523Z" fill="#C6A482"/>
<path fill-rule="evenodd" clip-rule="evenodd" d="M202.676 121.095C205.528 122.706 204.332 125.053 202.768 127.906C201.158 130.76 199.778 133.015 196.926 131.404C194.074 129.793 193.062 126.204 194.672 123.35C196.236 120.497 199.87 119.485 202.676 121.095Z" fill="#F5DECD"/>
<path fill-rule="evenodd" clip-rule="evenodd" d="M242.236 200.204C247.02 199.606 251.39 203.058 251.942 207.844L251.988 208.258C252.586 213.044 249.136 217.416 244.352 217.968L197.708 224.595C192.924 225.193 188.554 221.742 188.002 216.956L187.956 216.542C187.358 211.755 190.808 207.383 195.592 206.831L242.236 200.204Z" fill="#C6A482"/>
<path fill-rule="evenodd" clip-rule="evenodd" d="M192.556 221.236C192.74 222.294 193.108 223.26 193.66 224.135C194.902 224.595 196.282 224.779 197.708 224.595L204.608 223.675C204.7 222.432 204.47 220.959 204.24 219.395C203.596 215.299 202.906 212.031 198.812 212.676C194.718 213.32 191.911 217.14 192.556 221.236Z" fill="#FAEDE4"/>
<path fill-rule="evenodd" clip-rule="evenodd" d="M192.556 221.236C192.74 222.294 193.108 223.26 193.66 224.135C194.902 224.595 196.282 224.779 197.708 224.595L202.906 223.905C202.952 222.708 202.768 221.374 202.538 219.901C201.894 215.805 201.204 212.538 197.11 213.182C197.11 213.182 197.11 213.182 197.064 213.182C193.936 214.471 192.004 217.784 192.556 221.236Z" fill="#F6E5D6"/>
<path fill-rule="evenodd" clip-rule="evenodd" d="M260.866 151.469C260.866 151.423 260.82 151.423 260.866 151.469C260.82 151.423 260.866 151.423 260.866 151.469ZM284.74 175.767L272.136 168.726L284.74 175.767Z" fill="#F4F4F4"/>
<path fill-rule="evenodd" clip-rule="evenodd" d="M193.797 120.221C194.625 119.254 195.683 118.518 196.833 118.15C195.683 118.518 194.625 119.208 193.797 120.221ZM176.088 130.115C176.916 129.149 177.974 128.412 179.124 128.044C177.974 128.412 176.916 129.149 176.088 130.115ZM187.312 129.977L184.736 128.504L187.312 129.977Z" fill="#B0DCE3"/>
<path fill-rule="evenodd" clip-rule="evenodd" d="M193.108 121.187C193.292 120.819 193.522 120.497 193.798 120.221C193.522 120.497 193.292 120.819 193.108 121.187ZM193.062 121.279C193.062 121.279 193.062 121.233 193.062 121.279C193.062 121.233 193.062 121.279 193.062 121.279ZM175.352 131.128C175.582 130.759 175.812 130.437 176.042 130.115C175.812 130.437 175.582 130.759 175.352 131.128ZM225.538 151.377L187.312 129.977L225.538 151.377L225.722 151.008L225.538 151.377Z" fill="#A7D0D4"/>
<path fill-rule="evenodd" clip-rule="evenodd" d="M165.554 159.522C168.406 161.133 167.21 163.48 165.646 166.333C164.036 169.187 162.656 171.442 159.804 169.831C156.952 168.22 155.94 164.63 157.55 161.777C159.114 158.924 162.702 157.912 165.554 159.522Z" fill="#FAEDE4"/>
<path fill-rule="evenodd" clip-rule="evenodd" d="M169.786 141.988C172.638 143.599 171.442 145.946 169.878 148.8C168.268 151.653 166.888 153.908 164.036 152.297C161.184 150.686 160.172 147.097 161.782 144.243C163.346 141.436 166.934 140.424 169.786 141.988Z" fill="#FAEDE4"/>
<path fill-rule="evenodd" clip-rule="evenodd" d="M181.746 141.712C181.056 141.942 180.228 141.85 179.216 141.298C176.364 139.687 175.352 136.098 176.962 133.245C177.698 131.91 178.894 130.99 180.228 130.529C181.746 130.023 183.494 130.115 185.012 130.99C187.864 132.6 186.668 134.947 185.104 137.801C184.046 139.641 183.08 141.252 181.746 141.712Z" fill="#FAEDE4"/>
<path fill-rule="evenodd" clip-rule="evenodd" d="M199.456 131.772C198.766 132.002 197.938 131.91 196.926 131.358C194.074 129.747 193.062 126.157 194.672 123.304C195.408 121.97 196.604 121.049 197.938 120.589C199.456 120.083 201.204 120.175 202.722 121.003C205.574 122.614 204.378 124.961 202.814 127.814C201.756 129.747 200.79 131.358 199.456 131.772Z" fill="#FAEDE4"/>
<path fill-rule="evenodd" clip-rule="evenodd" d="M164.91 159.2C167.025 160.765 165.922 163.02 164.45 165.643C162.978 168.266 161.644 170.383 159.252 169.417C156.86 167.668 156.078 164.4 157.596 161.777C158.976 159.154 162.15 158.096 164.91 159.2Z" fill="#F6E5D6"/>
<path fill-rule="evenodd" clip-rule="evenodd" d="M169.096 141.666C171.212 143.231 170.108 145.486 168.636 148.109C167.164 150.732 165.83 152.849 163.438 151.883C161.046 150.134 160.264 146.867 161.782 144.243C163.208 141.62 166.382 140.562 169.096 141.666Z" fill="#F6E5D6"/>
<path fill-rule="evenodd" clip-rule="evenodd" d="M180.55 141.022C179.998 141.206 179.354 141.206 178.664 140.93C176.272 139.181 175.49 135.914 176.962 133.291C177.698 131.956 178.894 131.036 180.228 130.575C181.562 130.115 182.988 130.161 184.368 130.713C186.484 132.278 185.38 134.533 183.908 137.156C182.804 138.997 181.884 140.562 180.55 141.022Z" fill="#F6E5D6"/>
<path fill-rule="evenodd" clip-rule="evenodd" d="M198.26 131.128C197.708 131.312 197.064 131.312 196.374 131.036C193.982 129.287 193.2 126.019 194.672 123.396C195.408 122.062 196.604 121.141 197.938 120.681C199.272 120.221 200.698 120.267 202.078 120.819C204.194 122.384 203.09 124.639 201.618 127.262C200.514 129.057 199.548 130.667 198.26 131.128Z" fill="#F6E5D6"/>
<path fill-rule="evenodd" clip-rule="evenodd" d="M291.87 201.355C291.594 201.171 291.18 201.309 291.042 201.585L286.212 210.053C286.028 210.329 286.166 210.743 286.442 210.881C286.718 211.065 287.132 210.927 287.27 210.651L292.1 202.183C292.284 201.907 292.192 201.539 291.87 201.355Z" fill="#302E2D"/>
<path fill-rule="evenodd" clip-rule="evenodd" d="M263.81 196.845C263.396 196.615 262.844 196.753 262.614 197.167L261.464 199.192C261.234 199.606 261.372 200.158 261.786 200.434C262.2 200.665 262.752 200.526 262.982 200.112L264.132 198.087C264.362 197.673 264.224 197.121 263.81 196.845Z" fill="#302E2D"/>
<path fill-rule="evenodd" clip-rule="evenodd" d="M267.49 190.402C267.214 190.218 266.8 190.356 266.662 190.632L264.224 194.866C264.04 195.142 264.178 195.556 264.454 195.694C264.73 195.878 265.144 195.74 265.282 195.464L267.72 191.23C267.858 190.954 267.766 190.54 267.49 190.402Z" fill="#302E2D"/>
<path fill-rule="evenodd" clip-rule="evenodd" d="M271.814 224.687L258.75 217.324C258.52 216.68 258.612 215.943 259.118 215.069C259.164 214.977 259.21 214.931 259.256 214.839C259.394 214.563 259.532 214.287 259.67 214.01C260.682 211.847 261.326 209.362 260.268 207.061C260.268 207.015 260.222 207.015 260.222 206.969C260.222 206.923 260.176 206.923 260.176 206.877C259.624 205.819 259.44 204.3 260.038 203.242C263.718 196.707 267.444 190.218 271.124 183.683L271.308 183.361L271.4 183.177L271.492 183.039C271.584 182.855 271.722 182.717 271.86 182.532C272.734 181.382 274.206 180.876 275.586 180.784C275.816 180.784 276.046 180.738 276.276 180.692C278.668 179.817 279.772 177.976 280.784 176.504C281.106 175.998 281.428 175.537 281.842 175.169C282.072 174.939 282.348 174.755 282.624 174.617L296.148 182.21C296.194 182.532 296.148 182.901 296.102 183.223C296.01 183.729 295.78 184.281 295.504 184.787C294.768 186.398 293.71 188.285 294.216 190.77C294.308 191 294.4 191.184 294.492 191.414C294.722 191.875 294.906 192.427 294.998 192.979C295.32 193.761 295.182 194.636 294.906 195.51C294.86 195.694 294.768 195.924 294.676 196.062L294.584 196.201L294.492 196.385L294.308 196.707C290.628 203.242 286.902 209.731 283.222 216.265C282.624 217.324 281.198 217.968 280.002 218.014C279.956 218.014 279.91 218.014 279.91 218.014C279.864 218.014 279.864 218.014 279.818 218.014C279.358 218.06 278.944 218.152 278.576 218.29C276.736 218.935 275.264 220.499 274.16 222.11C273.976 222.34 273.838 222.616 273.654 222.892C273.608 222.984 273.562 223.03 273.516 223.122C273.01 224.043 272.458 224.549 271.814 224.687ZM277.012 199.284C276.874 199.514 276.966 199.79 277.196 199.928C277.426 200.066 277.702 199.974 277.84 199.744C277.886 199.652 277.886 199.56 277.886 199.468C277.886 199.376 277.84 199.284 277.748 199.192C277.702 199.146 277.702 199.146 277.656 199.1C277.426 198.962 277.15 199.054 277.012 199.284Z" fill="#2F373D"/>
<path fill-rule="evenodd" clip-rule="evenodd" d="M275.632 180.784C275.862 180.784 276.092 180.738 276.322 180.692C278.714 179.817 279.818 177.976 280.83 176.504C281.152 175.998 281.474 175.537 281.888 175.169C282.118 174.939 282.394 174.755 282.67 174.617L289.432 178.437L277.702 199.1C277.472 198.962 277.196 199.054 277.058 199.284C276.92 199.514 277.012 199.79 277.242 199.928L265.282 221.006L258.75 217.324C258.52 216.68 258.612 215.943 259.118 215.069C259.164 214.977 259.21 214.931 259.256 214.839C259.394 214.563 259.532 214.287 259.67 214.01C260.682 211.847 261.326 209.362 260.268 207.061C260.268 207.015 260.222 207.015 260.222 206.969C260.222 206.923 260.176 206.923 260.176 206.877C259.624 205.819 259.44 204.3 260.038 203.242C263.718 196.707 267.444 190.218 271.124 183.683L271.308 183.361L271.4 183.177L271.492 183.039C271.584 182.855 271.722 182.717 271.86 182.532C272.78 181.382 274.206 180.876 275.632 180.784Z" fill="#2A2F33"/>
<path fill-rule="evenodd" clip-rule="evenodd" d="M275.632 180.784C276.46 180.738 277.196 181.106 277.932 181.52L292.606 189.85C293.342 190.264 293.94 190.724 294.354 191.276C294.4 191.368 294.446 191.414 294.446 191.506C295.09 192.749 295.412 194.268 294.86 195.602C294.814 195.786 294.722 196.016 294.63 196.155L294.538 196.293L294.446 196.477L294.262 196.799C290.582 203.334 286.856 209.823 283.176 216.357C282.578 217.416 281.152 218.06 279.956 218.106C279.91 218.106 279.864 218.106 279.864 218.106C279.818 218.106 279.818 218.106 279.772 218.106C278.622 218.244 277.886 217.922 276.874 217.324L262.338 209.04C261.234 208.396 260.774 208.074 260.268 206.969C260.268 206.923 260.222 206.923 260.222 206.877C260.222 206.831 260.176 206.831 260.176 206.785C259.624 205.727 259.44 204.208 260.038 203.15C263.718 196.615 267.444 190.126 271.124 183.591L271.308 183.269L271.4 183.085L271.492 182.947C271.584 182.763 271.722 182.625 271.86 182.44C272.78 181.382 274.206 180.876 275.632 180.784ZM277.012 199.284C276.874 199.514 276.966 199.79 277.196 199.928C277.426 200.066 277.702 199.974 277.84 199.744C277.886 199.652 277.886 199.56 277.886 199.468C277.886 199.376 277.84 199.284 277.748 199.192C277.702 199.146 277.702 199.146 277.656 199.1C277.426 198.962 277.15 199.054 277.012 199.284Z" fill="#596163"/>
<path fill-rule="evenodd" clip-rule="evenodd" d="M293.802 191.644C293.388 191.184 292.836 190.77 292.284 190.448L277.61 182.118C277.012 181.796 276.368 181.428 275.678 181.474C274.482 181.566 273.194 181.98 272.458 182.947C272.366 183.085 272.274 183.177 272.182 183.315L271.814 184.005C268.134 190.54 264.408 197.029 260.728 203.564C260.222 204.438 260.452 205.681 260.866 206.555C260.866 206.601 260.912 206.601 260.912 206.647C260.912 206.693 260.912 206.693 260.958 206.739C261.372 207.706 261.786 207.936 262.752 208.488L277.288 216.772C278.162 217.278 278.806 217.554 279.772 217.462C279.818 217.462 279.818 217.462 279.864 217.462C279.91 217.462 279.956 217.462 279.956 217.462C280.922 217.416 282.118 216.91 282.578 216.081C286.258 209.546 289.984 203.058 293.664 196.523L294.032 195.832C294.124 195.694 294.17 195.556 294.216 195.418V195.372V195.326C294.676 194.176 294.354 192.841 293.802 191.783C293.848 191.737 293.802 191.69 293.802 191.644ZM277.564 199.928C277.702 199.882 277.794 199.79 277.84 199.698V199.744C277.748 199.836 277.656 199.882 277.564 199.928ZM277.886 199.56C277.886 199.468 277.886 199.376 277.84 199.284C277.886 199.33 277.886 199.376 277.886 199.468C277.886 199.468 277.886 199.514 277.886 199.56Z" fill="white"/>
<path fill-rule="evenodd" clip-rule="evenodd" d="M269.744 199.698V199.284H267.812V199.698H269.744ZM277.702 207.199H277.288V209.132H277.702V207.199ZM270.894 203.518L270.71 203.196L269.008 204.162L269.192 204.484L270.894 203.518ZM273.792 206.279L273.47 206.095L272.504 207.798L272.826 207.982L273.792 206.279ZM281.52 206.049L281.198 206.233L282.164 207.89L282.486 207.706L281.52 206.049ZM284.28 203.15L284.096 203.472L285.798 204.438L285.982 204.116L284.28 203.15ZM285.2 199.284V199.698H287.132V199.284H285.2ZM284.05 195.418L284.234 195.74L285.936 194.774L285.752 194.452L284.05 195.418ZM281.152 192.703L281.474 192.887L282.44 191.184L282.118 191L281.152 192.703ZM277.242 191.783H277.656V189.85H277.242V191.783ZM273.424 192.887L273.746 192.703L272.78 191L272.458 191.23L273.424 192.887ZM270.664 195.786L270.848 195.464L269.146 194.498L268.962 194.82L270.664 195.786Z" fill="#060000"/>
<path fill-rule="evenodd" clip-rule="evenodd" d="M277.886 199.468L282.762 197.995L282.67 197.719L277.748 199.192C277.84 199.284 277.886 199.376 277.886 199.468Z" fill="#060000"/>
<path fill-rule="evenodd" clip-rule="evenodd" d="M271.216 198.87L271.17 199.1L276.598 199.56C276.598 199.836 276.736 200.112 277.012 200.25C277.15 200.342 277.288 200.342 277.426 200.342L278.668 203.472L279.22 203.242L277.978 200.112C278.024 200.066 278.07 199.974 278.116 199.928C278.346 199.514 278.208 199.008 277.794 198.778C277.38 198.547 276.874 198.686 276.644 199.1C276.598 199.146 276.598 199.238 276.552 199.284L271.216 198.87ZM277.656 199.1L277.702 199.146C277.702 199.146 277.748 199.192 277.748 199.238C277.794 199.284 277.794 199.376 277.794 199.468C277.656 199.698 277.38 199.744 277.15 199.652C276.92 199.514 276.874 199.238 276.966 199.008C277.15 199.054 277.426 198.962 277.656 199.1Z" fill="#060000"/>
<path fill-rule="evenodd" clip-rule="evenodd" d="M141.45 269.465C159.528 265.093 186.254 264.357 205.022 269.465L183.218 280.05L145.682 276.368L141.45 269.465Z" fill="#192020"/>
<path fill-rule="evenodd" clip-rule="evenodd" d="M145.313 254.324C163.391 251.195 181.745 250.643 200.56 254.324L187.22 265.093L149.683 261.411L145.313 254.324Z" fill="#C8C8C9"/>
<path fill-rule="evenodd" clip-rule="evenodd" d="M150.308 240.917L196.4 241.043L196.256 293.828L150.164 293.702L150.308 240.917Z" fill="#D8B091"/>
<path fill-rule="evenodd" clip-rule="evenodd" d="M205.436 226.758C206.724 265.185 141.772 254.232 141.772 239.46L141.864 204.944C141.864 200.802 145.222 197.489 149.362 197.489L198.03 197.627C202.17 197.627 205.482 200.987 205.482 205.128L205.436 226.758Z" fill="#F0CBB0"/>
<path fill-rule="evenodd" clip-rule="evenodd" d="M156.814 208.304C156.814 211.893 153.87 214.793 150.282 214.793H148.35C144.762 214.793 141.864 211.847 141.864 208.258L142.002 150.456C142.002 146.867 144.946 143.967 148.534 143.967H150.466C154.054 143.967 156.952 146.913 156.952 150.502L156.814 208.304Z" fill="#F0CBB0"/>
<path fill-rule="evenodd" clip-rule="evenodd" d="M173.189 203.748C173.189 207.337 170.245 210.237 166.657 210.237H164.725C161.137 210.237 158.24 207.291 158.24 203.702L158.377 145.9C158.377 142.311 161.321 139.411 164.909 139.411H166.841C170.429 139.411 173.327 142.357 173.327 145.946L173.189 203.748Z" fill="#F0CBB0"/>
<path fill-rule="evenodd" clip-rule="evenodd" d="M189.244 211.249C189.244 214.839 186.3 217.738 182.712 217.738H180.78C177.192 217.738 174.294 214.793 174.294 211.203L174.432 153.402C174.432 149.812 177.376 146.913 180.964 146.913H182.896C186.484 146.913 189.382 149.858 189.382 153.448L189.244 211.249Z" fill="#F0CBB0"/>
<path fill-rule="evenodd" clip-rule="evenodd" d="M187.496 154.782C187.496 157.866 185.012 157.958 181.93 157.958C178.848 157.958 176.364 157.82 176.364 154.736C176.364 151.653 178.894 149.168 181.93 149.168C185.012 149.214 187.496 151.699 187.496 154.782Z" fill="#F5DECD"/>
<path fill-rule="evenodd" clip-rule="evenodd" d="M205.528 221.328C205.528 224.917 202.583 227.816 198.996 227.816H197.064C193.476 227.816 190.578 224.871 190.578 221.282L190.716 163.48C190.716 159.89 193.66 156.991 197.248 156.991H199.18C202.768 156.991 205.665 159.936 205.665 163.526L205.528 221.328Z" fill="#F0CBB0"/>
<path d="M205.528 221.328C205.528 224.917 202.583 227.816 198.996 227.816H197.064C193.476 227.816 190.578 224.871 190.578 221.282L190.716 163.48C190.716 159.89 193.66 156.991 197.248 156.991H199.18C202.768 156.991 205.665 159.936 205.665 163.526L205.528 221.328Z" stroke="#F0CBB0" stroke-width="0.216" stroke-miterlimit="22.9256"/>
<path fill-rule="evenodd" clip-rule="evenodd" d="M203.78 164.861C203.78 167.944 201.296 168.036 198.214 168.036C195.132 168.036 192.648 167.898 192.648 164.815C192.648 161.731 195.178 159.246 198.214 159.246C201.342 159.292 203.826 161.777 203.78 164.861Z" fill="#F5DECD"/>
<path fill-rule="evenodd" clip-rule="evenodd" d="M156.722 233.753C159.39 237.435 158.562 242.589 154.882 245.258L154.56 245.488C150.88 248.158 145.728 247.329 143.06 243.648L116.196 208.212C113.528 204.53 114.356 199.376 118.036 196.707L118.358 196.477C122.038 193.807 127.19 194.636 129.858 198.317L156.722 233.753Z" fill="#F0CBB0"/>
<path fill-rule="evenodd" clip-rule="evenodd" d="M116.564 202.459C115.782 203.104 115.138 203.84 114.678 204.714C114.862 205.957 115.368 207.199 116.15 208.258L120.06 213.504C121.118 212.998 122.222 212.17 123.418 211.249C126.5 208.856 128.892 206.785 126.5 203.702C124.108 200.572 119.646 200.02 116.564 202.459Z" fill="#FAEDE4"/>
<path fill-rule="evenodd" clip-rule="evenodd" d="M116.564 202.459C115.782 203.104 115.138 203.84 114.678 204.714C114.862 205.957 115.368 207.199 116.15 208.258L119.094 212.216C120.06 211.709 121.118 210.927 122.222 210.053C125.304 207.66 127.696 205.589 125.304 202.505C122.82 200.48 119.186 200.388 116.564 202.459Z" fill="#F6E5D6"/>
<path fill-rule="evenodd" clip-rule="evenodd" d="M196.328 257.638L196.374 244.016L196.328 257.638Z" fill="#F4F4F4"/>
<path fill-rule="evenodd" clip-rule="evenodd" d="M200.422 157.083C201.618 157.313 202.676 157.866 203.55 158.648C202.722 157.866 201.618 157.313 200.422 157.083ZM184.138 147.051C185.334 147.281 186.392 147.833 187.266 148.615C186.392 147.833 185.334 147.281 184.138 147.051ZM189.428 156.255V153.448V156.255Z" fill="#B0DCE3"/>
<path fill-rule="evenodd" clip-rule="evenodd" d="M199.318 156.991C199.686 156.991 200.054 157.037 200.422 157.129C200.1 157.037 199.732 156.991 199.318 156.991ZM182.988 146.913C183.402 146.913 183.77 146.959 184.138 147.051C183.77 146.959 183.356 146.913 182.988 146.913ZM189.29 197.581L189.382 156.209L189.29 197.581H189.658H189.29Z" fill="#A7D0D4"/>
<path fill-rule="evenodd" clip-rule="evenodd" d="M155.066 151.837C155.066 154.92 152.582 155.012 149.5 155.012C146.418 155.012 143.934 154.874 143.934 151.791C143.934 148.707 146.464 146.222 149.5 146.222C152.582 146.268 155.112 148.753 155.066 151.837Z" fill="#FAEDE4"/>
<path fill-rule="evenodd" clip-rule="evenodd" d="M171.442 147.281C171.442 150.364 168.958 150.456 165.876 150.456C162.794 150.456 160.31 150.318 160.31 147.235C160.31 144.151 162.84 141.666 165.876 141.666C168.958 141.712 171.442 144.197 171.442 147.281Z" fill="#FAEDE4"/>
<path fill-rule="evenodd" clip-rule="evenodd" d="M177.192 157.037C176.686 156.577 176.364 155.841 176.364 154.782C176.364 151.699 178.894 149.214 181.93 149.214C183.356 149.214 184.69 149.766 185.656 150.64C186.806 151.653 187.496 153.125 187.496 154.782C187.496 157.866 185.012 157.958 181.93 157.958C179.952 157.958 178.158 157.912 177.192 157.037Z" fill="#FAEDE4"/>
<path fill-rule="evenodd" clip-rule="evenodd" d="M193.476 167.116C192.97 166.655 192.648 165.919 192.648 164.861C192.648 161.777 195.178 159.292 198.214 159.292C199.64 159.292 200.928 159.844 201.94 160.719C203.09 161.731 203.78 163.204 203.78 164.861C203.78 167.944 201.296 168.036 198.214 168.036C196.236 168.036 194.488 167.99 193.476 167.116Z" fill="#FAEDE4"/>
<path fill-rule="evenodd" clip-rule="evenodd" d="M145.313 254.324C163.575 259.801 181.975 259.985 200.56 254.324V313.507H145.313V254.324Z" fill="#EAECEC"/>
<path fill-rule="evenodd" clip-rule="evenodd" d="M154.974 256.717C170.062 259.663 185.242 258.972 200.56 254.324V266.888C185.242 272.134 170.982 272.64 154.974 269.465V256.717Z" fill="#FFFFFD"/>
<path fill-rule="evenodd" clip-rule="evenodd" d="M141.404 269.465C162.518 276.322 183.77 275.816 205.022 269.465C201.756 288.241 205.206 307.478 208.012 327.543C184.966 334.124 162.748 334.354 141.404 327.911C142.186 308.536 142.554 289.116 141.404 269.465Z" fill="#31383E"/>
<path fill-rule="evenodd" clip-rule="evenodd" d="M198.72 329.844C197.662 311.252 198.26 290.312 193.338 272.364C197.248 271.582 201.158 270.615 205.068 269.465C201.802 288.241 205.252 307.478 208.058 327.543L198.72 329.844Z" fill="#474F54"/>
<path fill-rule="evenodd" clip-rule="evenodd" d="M145.682 270.754C146.786 289.99 148.948 312.54 154.606 330.994L141.404 327.865C141.404 327.543 141.45 327.267 141.45 326.944C141.45 326.622 141.496 326.346 141.496 326.024C141.496 325.702 141.542 325.426 141.542 325.104C141.542 324.782 141.542 324.505 141.588 324.183C141.588 323.861 141.588 323.585 141.634 323.263C141.634 322.941 141.634 322.665 141.68 322.342C141.68 322.02 141.68 321.744 141.726 321.422C141.726 321.1 141.726 320.824 141.772 320.502C141.772 320.179 141.772 319.903 141.818 319.581C141.818 319.259 141.818 318.983 141.864 318.661C141.864 318.339 141.864 318.063 141.91 317.74C141.91 317.418 141.91 317.142 141.956 316.82C141.956 316.498 141.956 316.222 142.002 315.9C142.002 315.577 142.002 315.301 142.048 314.979C142.048 314.657 142.048 314.381 142.094 314.059C142.14 313.737 142.094 313.46 142.14 313.138C142.14 312.816 142.14 312.54 142.14 312.218C142.14 311.896 142.14 311.62 142.14 311.298C142.14 310.975 142.14 310.699 142.14 310.377C142.14 310.055 142.14 309.779 142.14 309.457C142.14 309.135 142.14 308.858 142.14 308.536C142.14 308.214 142.14 307.938 142.14 307.616C142.14 307.294 142.14 307.018 142.14 306.695C142.14 306.373 142.14 306.097 142.14 305.775C142.14 305.453 142.14 305.177 142.14 304.855C142.14 304.533 142.14 304.256 142.14 303.934C142.14 303.612 142.14 303.336 142.14 303.014C142.14 302.692 142.14 302.416 142.14 302.093C142.14 301.771 142.14 301.495 142.14 301.173C142.14 300.851 142.14 300.575 142.14 300.253C142.14 299.93 142.14 299.654 142.14 299.332C142.14 299.01 142.14 298.734 142.14 298.412C142.14 298.09 142.14 297.814 142.14 297.491C142.14 297.169 142.14 296.893 142.14 296.571C142.14 296.249 142.14 295.973 142.14 295.651C142.14 295.328 142.14 295.052 142.14 294.73C142.14 294.408 142.14 294.132 142.14 293.81C142.14 293.488 142.14 293.212 142.14 292.889C142.14 292.567 142.14 292.291 142.14 291.969C142.14 291.647 142.14 291.371 142.14 291.049C142.14 290.726 142.14 290.45 142.14 290.128C142.14 289.806 142.14 289.53 142.14 289.208C142.14 288.886 142.14 288.609 142.14 288.287C142.14 287.965 142.14 287.689 142.14 287.367C142.14 287.045 142.14 286.769 142.14 286.447C142.14 286.124 142.14 285.848 142.14 285.526C142.14 285.204 142.14 284.928 142.14 284.606C142.14 284.284 142.14 284.007 142.14 283.685C142.14 283.363 142.14 283.087 142.14 282.765C142.14 282.443 142.14 282.167 142.094 281.844C142.094 281.522 142.094 281.246 142.048 280.924C142.048 280.602 142.048 280.326 142.002 280.004C142.002 279.681 142.002 279.405 141.956 279.083C141.956 278.761 141.956 278.485 141.91 278.163C141.91 277.841 141.91 277.565 141.864 277.242C141.864 276.92 141.818 276.644 141.818 276.322C141.818 276 141.772 275.724 141.772 275.402C141.772 275.079 141.726 274.803 141.726 274.481C141.726 274.159 141.68 273.883 141.68 273.561C141.68 273.239 141.634 272.963 141.634 272.64C141.634 272.318 141.588 272.042 141.588 271.72C141.588 271.398 141.542 271.122 141.542 270.8C141.542 270.477 141.496 270.201 141.496 269.879C141.496 269.557 141.45 269.281 141.45 268.959C142.83 269.925 144.256 270.339 145.682 270.754Z" fill="#202A2A"/>
<path fill-rule="evenodd" clip-rule="evenodd" d="M151.616 284.698C154.514 284.698 156.86 287.045 156.86 289.944C156.86 292.843 154.514 295.19 151.616 295.19C148.718 295.19 146.372 292.843 146.372 289.944C146.372 287.045 148.718 284.698 151.616 284.698Z" fill="#9E9E9F"/>
<path fill-rule="evenodd" clip-rule="evenodd" d="M151.616 286.999C153.272 286.999 154.56 288.333 154.56 289.944C154.56 291.555 153.226 292.889 151.616 292.889C149.96 292.889 148.672 291.555 148.672 289.944C148.672 288.333 150.006 286.999 151.616 286.999Z" fill="#B6B7B8"/>
<path fill-rule="evenodd" clip-rule="evenodd" d="M154.468 289.162C154.56 289.438 154.606 289.714 154.606 289.99C154.606 291.647 153.272 292.935 151.662 292.935C150.742 292.935 149.868 292.521 149.362 291.831C149.27 291.555 149.224 291.279 149.224 291.003C149.224 289.346 150.558 288.057 152.168 288.057C153.088 288.011 153.916 288.471 154.468 289.162Z" fill="#EAECEC"/>
<path fill-rule="evenodd" clip-rule="evenodd" d="M155.02 151.147C154.698 153.632 152.352 153.724 149.5 153.724C146.648 153.724 144.302 153.586 143.98 151.147C144.302 148.385 146.694 146.222 149.546 146.268C152.352 146.268 154.698 148.385 155.02 151.147Z" fill="#F6E5D6"/>
<path fill-rule="evenodd" clip-rule="evenodd" d="M171.396 146.591C171.074 149.076 168.728 149.168 165.876 149.168C163.024 149.168 160.678 149.03 160.356 146.591C160.678 143.829 163.024 141.666 165.922 141.712C168.728 141.712 171.074 143.829 171.396 146.591Z" fill="#F6E5D6"/>
<path fill-rule="evenodd" clip-rule="evenodd" d="M177.192 155.703C176.778 155.334 176.502 154.828 176.41 154.092C176.732 151.331 179.078 149.168 181.976 149.214C183.402 149.214 184.736 149.766 185.702 150.64C186.668 151.515 187.312 152.711 187.496 154.092C187.174 156.577 184.828 156.669 181.976 156.669C179.952 156.669 178.158 156.623 177.192 155.703Z" fill="#F6E5D6"/>
<path fill-rule="evenodd" clip-rule="evenodd" d="M193.475 165.781C193.061 165.413 192.785 164.907 192.693 164.17C193.015 161.409 195.361 159.246 198.259 159.292C199.686 159.292 200.973 159.844 201.985 160.719C202.951 161.593 203.596 162.79 203.78 164.17C203.458 166.655 201.112 166.747 198.259 166.747C196.235 166.747 194.487 166.655 193.475 165.781Z" fill="#F6E5D6"/>
<path d="M298.127 245.995V244.803H299.319V245.995H298.127Z" fill="white"/>
</svg>
