<svg width="144" height="144" viewBox="0 0 144 144" fill="none" xmlns="http://www.w3.org/2000/svg">
<g filter="url(#filter0_d)">
<path fill-rule="evenodd" clip-rule="evenodd" d="M72 136C109.555 136 140 105.555 140 68C140 30.4446 109.555 0 72 0C34.4446 0 4 30.4446 4 68C4 105.555 34.4446 136 72 136ZM59 100C81.0914 100 99 82.0914 99 60C99 37.9086 81.0914 20 59 20C36.9086 20 19 37.9086 19 60C19 82.0914 36.9086 100 59 100Z" fill="url(#paint0_linear)"/>
</g>
<g filter="url(#filter1_i)">
<path fill-rule="evenodd" clip-rule="evenodd" d="M10.5639 38.815C8.26767 44.3378 7 50.3959 7 56.75C7 82.5693 27.9307 103.5 53.75 103.5C79.5693 103.5 100.5 82.5693 100.5 56.75C100.5 30.9307 79.5693 10 53.75 10C39.6031 10 26.9239 16.2837 18.3511 26.2122C15.3206 30.0974 12.7029 34.3203 10.5639 38.815ZM99 60C99 82.0914 81.0914 100 59 100C36.9086 100 19 82.0914 19 60C19 37.9086 36.9086 20 59 20C81.0914 20 99 37.9086 99 60Z" fill="#663399"/>
</g>
<defs>
<filter id="filter0_d" x="0" y="0" width="144" height="144" filterUnits="userSpaceOnUse" color-interpolation-filters="sRGB">
<feFlood flood-opacity="0" result="BackgroundImageFix"/>
<feColorMatrix in="SourceAlpha" type="matrix" values="0 0 0 0 0 0 0 0 0 0 0 0 0 0 0 0 0 0 127 0"/>
<feOffset dy="4"/>
<feGaussianBlur stdDeviation="2"/>
<feColorMatrix type="matrix" values="0 0 0 0 0 0 0 0 0 0 0 0 0 0 0 0 0 0 0.25 0"/>
<feBlend mode="normal" in2="BackgroundImageFix" result="effect1_dropShadow"/>
<feBlend mode="normal" in="SourceGraphic" in2="effect1_dropShadow" result="shape"/>
</filter>
<filter id="filter1_i" x="7" y="10" width="93.5" height="97.5" filterUnits="userSpaceOnUse" color-interpolation-filters="sRGB">
<feFlood flood-opacity="0" result="BackgroundImageFix"/>
<feBlend mode="normal" in="SourceGraphic" in2="BackgroundImageFix" result="shape"/>
<feColorMatrix in="SourceAlpha" type="matrix" values="0 0 0 0 0 0 0 0 0 0 0 0 0 0 0 0 0 0 127 0" result="hardAlpha"/>
<feOffset dy="4"/>
<feGaussianBlur stdDeviation="2"/>
<feComposite in2="hardAlpha" operator="arithmetic" k2="-1" k3="1"/>
<feColorMatrix type="matrix" values="0 0 0 0 0 0 0 0 0 0 0 0 0 0 0 0 0 0 0.25 0"/>
<feBlend mode="normal" in2="shape" result="effect1_innerShadow"/>
</filter>
<linearGradient id="paint0_linear" x1="17.5" y1="27.5" x2="147.5" y2="118.5" gradientUnits="userSpaceOnUse">
<stop stop-color="#B838F8"/>
<stop offset="0.994792" stop-color="#C991E4"/>
</linearGradient>
</defs>
</svg>
