<svg xmlns="http://www.w3.org/2000/svg" viewBox="0 0 30 30" width="40px" height="40px"><path fill="#d84e4e" d="M27.432 9.075L26.524 26.525 9.503 27.433z"/><path fill="#c74343" d="M26.864,10.372l-0.816,15.677l-15.292,0.816L26.864,10.372 M28,7.778L8.25,28L27,27L28,7.778 L28,7.778z"/><path fill="#e26666" d="M26.457 26.5L18.211 18.254 27.434 9.252 26.525 26.5z"/><path fill="#c74343" d="M26.867,10.504l-0.785,14.914l-7.159-7.159L26.867,10.504 M28,8L17.5,18.25L26.25,27H27L28,8L28,8z"/><path fill="#ed7e7e" d="M7.452,27.5c-1.559,0-2.787-0.438-3.65-1.301c-3.089-3.09-0.579-10.627,5.596-16.802 C13.651,5.143,18.69,2.5,22.548,2.5c1.559,0,2.787,0.438,3.65,1.301c3.089,3.09,0.579,10.627-5.596,16.802 C16.349,24.857,11.31,27.5,7.452,27.5z"/><path fill="#c74343" d="M22.548,3L22.548,3c1.421,0,2.53,0.389,3.296,1.155c2.845,2.845,0.283,10.216-5.596,16.094 C16.149,24.35,11.125,27,7.452,27c-1.421,0-2.531-0.389-3.297-1.155C1.31,22.999,3.872,15.629,9.751,9.751 C13.851,5.65,18.875,3,22.548,3 M22.548,2c-3.837,0-9.03,2.569-13.504,7.043c-6.38,6.38-8.885,14.219-5.596,17.509 C4.43,27.534,5.818,28,7.452,28c3.837,0,9.03-2.569,13.504-7.043c6.38-6.38,8.885-14.219,5.596-17.509 C25.57,2.466,24.182,2,22.548,2L22.548,2z"/><g><path fill="#f7a3a3" d="M5.175 17.944L2.5 21.461 2.5 15.139 5.397 10.31 10.296 5.411 16.118 2.5 21.793 2.5 19.097 5.195 26.436 7.947 17.379 10.664 20.176 20.104 10.665 16.329 7.952 26.275z"/><path fill="#c74343" d="M20.586,3l-1.293,1.293l-1.098,1.098l1.454,0.545l5.222,1.958l-7.158,2.148l-0.955,0.286 l0.283,0.956l2.363,7.975l-8.036-3.189l-1.039-0.412l-0.294,1.079L7.904,24.55l-1.956-5.867L5.35,16.888l-1.146,1.507L3,19.978 v-4.701l2.794-4.657l4.798-4.798L16.236,3H20.586 M23,2h-7l-6,3l-5,5l-3,5v7.944L5,19l3,9l3-11l9.948,3.948L18,11l10-3l-8-3L23,2 L23,2z"/></g><g><path fill="#ed7e7e" d="M2.602 14.969L5.397 10.31 10.296 5.411 15.955 2.582 19.463 5.081 17.57 10.71 10.749 16.557 5.184 18.412z"/><path fill="#c74343" d="M15.909,3.163l2.962,2.11L17.14,10.42l-6.642,5.693l-5.13,1.71l-2.164-2.885l2.591-4.318 l4.798-4.798L15.909,3.163 M16,2l-6,3l-5,5l-3,5l3,4l6-2l7-6l2.056-6.111L16,2L16,2z"/></g></svg>